<?xml version="1.0" encoding="utf-8"?>
<!-- Generator: Adobe Illustrator 17.1.0, SVG Export Plug-In . SVG Version: 6.00 Build 0)  -->
<!DOCTYPE svg PUBLIC "-//W3C//DTD SVG 1.1//EN" "http://www.w3.org/Graphics/SVG/1.1/DTD/svg11.dtd">
<svg version="1.1" id="Слой_1" xmlns="http://www.w3.org/2000/svg" xmlns:xlink="http://www.w3.org/1999/xlink" x="0px" y="0px"
	 viewBox="0 0 30 30" enable-background="new 0 0 30 30" xml:space="preserve">
<g>
	<path fill="#FFFFFF" d="M26,16C26,16,26,16,26,16c-0.3-2.6-1.3-4.9-2.9-6.8c0.2-0.2,0.4-0.4,0.4-0.7c0-0.6-0.4-1-1-1
		c-0.3,0-0.6,0.1-0.7,0.4C19.9,6.3,17.6,5.3,15,5c0,0,0,0,0,0c0-0.6-0.4-1-1-1s-1,0.4-1,1c0,0,0,0,0,0c-2.6,0.2-4.9,1.2-6.8,2.8
		C6.1,7.6,5.8,7.5,5.5,7.5c-0.6,0-1,0.4-1,1c0,0.3,0.1,0.6,0.4,0.7C3.3,11.1,2.3,13.4,2,16c0,0,0,0,0,0c-0.6,0-1,0.4-1,1s0.4,1,1,1
		c0,0,0,0,0,0c0.2,2.6,1.2,4.9,2.8,6.8c-0.2,0.2-0.4,0.4-0.4,0.7c0,0.6,0.4,1,1,1c0.3,0,0.6-0.1,0.7-0.4c1.9,1.6,4.2,2.6,6.8,2.8
		c0,0,0,0,0,0c0,0.6,0.4,1,1,1s1-0.4,1-1c0,0,0,0,0,0c2.6-0.2,4.9-1.2,6.8-2.8c0.2,0.2,0.4,0.4,0.7,0.4c0.6,0,1-0.4,1-1
		c0-0.3-0.1-0.6-0.4-0.7c1.6-1.9,2.6-4.2,2.8-6.8c0,0,0,0,0,0c0.6,0,1-0.4,1-1S26.6,16,26,16z"/>
	<circle fill="#C6C7BF" cx="14" cy="17" r="10"/>
</g>
<g>
	<path fill="#453C35" d="M22.7,1.2L21.1,0l-9.5,13.9c-0.4,0.1-0.9,0.4-1.3,0.9c-0.6,0.8-0.6,1.7-0.2,2c0.4,0.3,1.3,0,1.8-0.8
		c0.4-0.5,0.5-1,0.5-1.5L22.7,1.2z"/>
	<path fill="#453C35" d="M30,4.9l-1.4-1.5l-12,11.8c-0.4,0-0.9,0.2-1.4,0.6c-0.7,0.6-1,1.5-0.6,1.9c0.4,0.4,1.2,0.2,1.9-0.4
		c0.5-0.4,0.7-0.9,0.7-1.4L30,4.9z"/>
</g>
</svg>
