<?xml version="1.0" encoding="utf-8"?>
<!-- Generator: Adobe Illustrator 17.1.0, SVG Export Plug-In . SVG Version: 6.00 Build 0)  -->
<!DOCTYPE svg PUBLIC "-//W3C//DTD SVG 1.1//EN" "http://www.w3.org/Graphics/SVG/1.1/DTD/svg11.dtd">
<svg version="1.1" id="Слой_1" xmlns="http://www.w3.org/2000/svg" xmlns:xlink="http://www.w3.org/1999/xlink" x="0px" y="0px"
	 viewBox="0 0 30 30" enable-background="new 0 0 30 30" xml:space="preserve">
<g>
	<path fill="#313131" d="M18.5,17c-0.7,1.2-2,2-3.5,2c-2.2,0-4-1.8-4-4c0-1.5,0.8-2.8,2-3.5L5.2,3.7C4.9,3.9,4.6,4.1,4.4,4.4
		c-5.9,5.9-5.9,15.4,0,21.2c5.9,5.9,15.4,5.9,21.2,0c0,0,0,0,0,0c0.3-0.3,0.5-0.5,0.7-0.8L18.5,17z"/>
	<path fill="#545454" d="M25.6,4.4c-5.9-5.9-15.4-5.9-21.2,0l7.8,7.8c0.7-0.7,1.7-1.2,2.8-1.2c2.2,0,4,1.8,4,4
		c0,1.1-0.4,2.1-1.2,2.8l7.8,7.8C31.5,19.7,31.5,10.3,25.6,4.4z"/>
	<path fill="#FFFFFF" d="M15,10c-1.4,0-2.6,0.6-3.5,1.5S10,13.6,10,15c0,2.8,2.2,5,5,5c1.4,0,2.6-0.6,3.5-1.5S20,16.3,20,15
		C20,12.2,17.8,10,15,10z M15,16c-0.6,0-1-0.4-1-1s0.4-1,1-1s1,0.4,1,1S15.6,16,15,16z"/>
</g>
</svg>
