<?xml version="1.0" encoding="utf-8"?>
<!-- Generator: Adobe Illustrator 17.1.0, SVG Export Plug-In . SVG Version: 6.00 Build 0)  -->
<!DOCTYPE svg PUBLIC "-//W3C//DTD SVG 1.1//EN" "http://www.w3.org/Graphics/SVG/1.1/DTD/svg11.dtd">
<svg version="1.1" id="Слой_1" xmlns="http://www.w3.org/2000/svg" xmlns:xlink="http://www.w3.org/1999/xlink" x="0px" y="0px"
	 viewBox="0 0 30 30" enable-background="new 0 0 30 30" xml:space="preserve">
<g>
	<path fill="#C9B3A6" d="M7.9,17c0-0.6-0.4-1-1-1l0,0c-0.6,0-1,0.4-1,1l-1,12c0,0.6,0.4,1,1,1h2c0.6,0,1-0.4,1-1L7.9,17z"/>
	<path fill="#CA4242" d="M8,16.9C7.7,17,7.3,17,7,17c-2.2,0-4.2-1.6-5.2-4.1C1.6,12.6,2.4,12,2.4,12L8,12L8,16.9z"/>
	<path fill="#D77778" d="M11.6,12.1c0,0,0.8,0.6,0.6,0.9c-1,2.4-3,4-5.2,4l0-5L11.6,12.1z"/>
	<path fill="#F03B36" d="M8,13l-6.2,0C1.3,11.8,1,10.4,1,9c0-0.3,1-1,1-1l6,0L8,13z"/>
	<path fill="#F17471" d="M13,9c0,1.5-0.3,2.8-0.8,4H7l0-5h5C12,8,13,8.6,13,9z"/>
	<path fill="#F46C2D" d="M1,9c0-1.9,0.5-3.6,1.3-5L8,4v5L1,9z"/>
	<path fill="#F59367" d="M7,4l4.7,0C12.5,5.4,13,7.1,13,9H7L7,4z"/>
	<path fill="#F89304" d="M1.8,5c1-2.4,3-4,5.2-4c0.3,0,0.7,0,1,0.1L8,5L1.8,5z"/>
	<path fill="#F7B250" d="M7,1c2.2,0,4.2,1.6,5.2,4L7,5L7,1z"/>
</g>
<g>
	<path fill="#C9B3A6" d="M19.4,18.5c0.3-0.5,0.1-1.1-0.4-1.4l0,0c-0.5-0.3-1.1-0.1-1.4,0.4l-6.7,10c-0.3,0.5-0.1,1.1,0.4,1.4l1.7,1
		c0.5,0.3,1.1,0.1,1.4-0.4L19.4,18.5z"/>
	<path fill="#CA4242" d="M19.5,18.4c-0.3-0.1-0.6-0.2-0.9-0.4c-2-1.1-2.9-3.5-2.6-6.1c0-0.3,1-0.5,1-0.5l4.8,2.7L19.5,18.4z"/>
	<path fill="#D77778" d="M25,15.9c0,0,0.4,0.9,0.1,1.1c-2.1,1.6-4.5,2-6.5,1l2.4-4.3L25,15.9z"/>
	<path fill="#F03B36" d="M21.4,15L16,12c0.1-1.3,0.5-2.6,1.2-3.9c0.2-0.3,1.4-0.3,1.4-0.3l5.2,2.9L21.4,15z"/>
	<path fill="#F17471" d="M27.7,13.9c-0.7,1.3-1.6,2.3-2.7,3.1l-4.5-2.5l2.4-4.4l4.3,2.4C27.3,12.6,27.9,13.7,27.7,13.9z"/>
	<path fill="#F46C2D" d="M17.2,8.2c0.9-1.7,2.2-2.9,3.6-3.7l5,2.7l-2.4,4.4L17.2,8.2z"/>
	<path fill="#F59367" d="M24.9,6.7L29,8.9c0.1,1.6-0.3,3.4-1.3,5l-5.2-2.9L24.9,6.7z"/>
	<path fill="#F89304" d="M19.8,5.1c2.1-1.6,4.6-2.1,6.5-1c0.3,0.2,0.6,0.4,0.8,0.6L25.3,8L19.8,5.1z"/>
	<path fill="#F7B250" d="M26.4,4.1c1.9,1.1,2.9,3.4,2.6,6l-4.6-2.5L26.4,4.1z"/>
</g>
</svg>
