<?xml version="1.0" encoding="utf-8"?>
<!-- Generator: Adobe Illustrator 17.1.0, SVG Export Plug-In . SVG Version: 6.00 Build 0)  -->
<!DOCTYPE svg PUBLIC "-//W3C//DTD SVG 1.1//EN" "http://www.w3.org/Graphics/SVG/1.1/DTD/svg11.dtd">
<svg version="1.1" id="Слой_1" xmlns="http://www.w3.org/2000/svg" xmlns:xlink="http://www.w3.org/1999/xlink" x="0px" y="0px"
	 viewBox="0 0 30 30" enable-background="new 0 0 30 30" xml:space="preserve">
<g>
	<path fill="#C5DCD3" d="M25,7c-0.6,0-1,0.4-1,1h-2.5v1H24c0,0.6,0.4,1,1,1s1-0.4,1-1V8C26,7.4,25.6,7,25,7z"/>
	<path fill="#C5DCD3" d="M25,14c-0.6,0-1,0.4-1,1h-2.5v1H24c0,0.6,0.4,1,1,1s1-0.4,1-1v-1C26,14.4,25.6,14,25,14z"/>
	<path fill="#C5DCD3" d="M5,7C4.4,7,4,7.4,4,8v1c0,0.6,0.4,1,1,1s1-0.4,1-1h2.5V8H6C6,7.4,5.6,7,5,7z"/>
	<path fill="#C5DCD3" d="M5,14c-0.6,0-1,0.4-1,1v1c0,0.6,0.4,1,1,1s1-0.4,1-1h2.5v-1H6C6,14.4,5.6,14,5,14z"/>
</g>
<rect x="10" y="23" fill="#535353" width="10" height="7"/>
<path fill="#403730" d="M7,0l1,20c0,0,1,4,2,4c1,0,10,0,10,0s1,0,2-4l1-20H7z"/>
<path fill="#544A42" d="M15,0h8l-1,20c-1,4-2,4-2,4s-2.5,0-5,0L15,0z"/>
<g>
	<rect x="10" y="29" fill="#707171" width="10" height="1"/>
	<rect x="10" y="25" fill="#707171" width="10" height="1"/>
</g>
<g>
	<polygon fill="#A18059" points="12,8 12,9 13,9 13,30 14,30 14,8 13,8 	"/>
	<polygon fill="#A18059" points="16,8 16,30 17,30 17,9 18,9 18,8 17,8 	"/>
	<rect x="10" y="16" fill="#A18059" width="1" height="14"/>
	<rect x="19" y="16" fill="#A18059" width="1" height="14"/>
</g>
<g>
	<circle fill="#FFFFFF" cx="18.5" cy="8.5" r="1.5"/>
	<circle fill="#FFFFFF" cx="11.5" cy="8.5" r="1.5"/>
	<circle fill="#FFFFFF" cx="10.5" cy="15.5" r="1.5"/>
	<circle fill="#FFFFFF" cx="19.5" cy="15.5" r="1.5"/>
</g>
</svg>
