<?xml version="1.0" encoding="utf-8"?>
<!-- Generator: Adobe Illustrator 17.1.0, SVG Export Plug-In . SVG Version: 6.00 Build 0)  -->
<!DOCTYPE svg PUBLIC "-//W3C//DTD SVG 1.1//EN" "http://www.w3.org/Graphics/SVG/1.1/DTD/svg11.dtd">
<svg version="1.1" id="Слой_1" xmlns="http://www.w3.org/2000/svg" xmlns:xlink="http://www.w3.org/1999/xlink" x="0px" y="0px"
	 viewBox="0 0 50 50" enable-background="new 0 0 50 50" xml:space="preserve">
<path fill="#314B5B" d="M9,25L8,25c0.5-9.6,9.2-13.9,17-13.9c0,0,0,0,0,0c7.8,0,16.5,4.4,17,13.9L41,25c-0.5-8.9-8.6-13-16-13
	C17.6,12.1,9.5,16.1,9,25z"/>
<path fill="#E4C59A" d="M27,49.2c-0.7,0.2-1.4,0.8-2,0.8c-7,0-15-9-15-20s6.7-20,15-20c0.7,0,1.3,0.1,2,0.2L27,49.2z"/>
<path fill="#FADBB0" d="M25,50c7,0,15-9,15-20s-6.7-20-15-20l0,14c0,0-1.5,7-3,9c0,0-1,2,1,2s2,0,2,0V50z"/>
<g>
	<circle fill="#616D6F" cx="19" cy="26.5" r="1"/>
	<circle fill="#616D6F" cx="31" cy="26.5" r="1"/>
</g>
<path fill="#050606" d="M30,38.5c0,2.2-2.2,4-5,4s-5-1.8-5-4H30z"/>
<path d="M39.7,23.1L36.8,23c-1.1-1-2.7-1-4.8-1c-0.1,0-0.2,0-0.3,0c-3.3,0-4.6,0-5.2,1h-2.9c-0.6-1-2-1-5.2-1c-0.1,0-0.2,0-0.3,0
	c-2.1,0-3.7,0-4.8,1h-3v2h2c-0.1,0.6-0.2,1.2-0.2,2c0,3,2,5,6,5c3,0,6-3,6-5c0-0.8,0-1.4,0-2H26c0,0.6,0,1.2,0,2c0,2,3,5,6,5
	c4,0,6-2,6-5c0-0.8-0.1-1.4-0.2-2h1.9V23.1z M21.4,29.5C20.4,30.4,19.1,31,18,31c-2.3,0-5-0.7-5-4c0-4,1.5-4,5-4l0.3,0
	c2.1,0,3.8,0,4.3,0.4C23,23.7,23,25.1,23,27C23,27.6,22.5,28.6,21.4,29.5z M32,31c-1.1,0-2.4-0.6-3.4-1.5C27.5,28.6,27,27.6,27,27
	c0-1.9,0-3.3,0.4-3.6c0.4-0.4,2.2-0.4,4.3-0.4l0.3,0c3.5,0,5,0,5,4C37,30.3,34.3,31,32,31z"/>
<path fill="#904F3A" d="M10.1,28.1c2-20,27.8-20.1,29.9,0L40,10l-2,2.8c0,0,0.5-7.6-4-12.8l-3,4.1c0,0-1,2-2,0l-0.1-3.1
	c-0.4-0.9-1,2-5,2S12,7.1,12,14c0,2.3-2,0-2,0L10.1,28.1z"/>
<g>
	<path fill="#314B5B" d="M40.7,24c-2.2,0-2.2,10,0,10s4-2.2,4-5S42.9,24,40.7,24z"/>
	<path fill="#314B5B" d="M18.2,39.5c-0.7,0-1.2,0.3-1.6,0.8c-3.3-1.7-5.2-4.7-6.3-7c1.3-2.3,1-9.3-0.9-9.3c-2.2,0-4,2.2-4,5
		s1.8,5,4,5c0,0,0,0,0.1,0c1.2,2.4,3.3,5.4,6.8,7.3c0,0.1,0,0.2,0,0.3c0,1.1,0.9,2,2,2c1.1,0,2-0.9,2-2
		C20.2,40.4,19.3,39.5,18.2,39.5z"/>
</g>
</svg>
