<?xml version="1.0" encoding="utf-8"?>
<!-- Generator: Adobe Illustrator 17.1.0, SVG Export Plug-In . SVG Version: 6.00 Build 0)  -->
<!DOCTYPE svg PUBLIC "-//W3C//DTD SVG 1.1//EN" "http://www.w3.org/Graphics/SVG/1.1/DTD/svg11.dtd">
<svg version="1.1" id="Слой_1" xmlns="http://www.w3.org/2000/svg" xmlns:xlink="http://www.w3.org/1999/xlink" x="0px" y="0px"
	 viewBox="0 0 30 30" enable-background="new 0 0 30 30" xml:space="preserve">
<g>
	<path d="M5,15C5,9.5,9.5,5,15,5c0.2,0,0.4,0,0.5,0l-1.2,1.2c-0.4,0.4-0.4,1,0,1.4C14.5,7.9,14.7,8,15,8c0.3,0,0.5-0.1,0.7-0.3l3-3
		C18.9,4.5,19,4.3,19,4s-0.1-0.5-0.3-0.7l-3-3c-0.4-0.4-1-0.4-1.4,0c-0.4,0.4-0.4,1,0,1.4L15.6,3c-0.2,0-0.4,0-0.6,0
		C8.4,3,3,8.4,3,15c0,3.9,1.9,7.6,5.1,9.8C8.3,25,8.5,25,8.7,25c0.3,0,0.6-0.1,0.8-0.4c0.3-0.5,0.2-1.1-0.2-1.4
		C6.6,21.3,5,18.3,5,15z"/>
	<path d="M27,15c0-3.9-1.9-7.5-5.1-9.8c-0.4-0.3-1.1-0.2-1.4,0.2c-0.3,0.5-0.2,1.1,0.2,1.4C23.4,8.7,25,11.8,25,15
		c0,5.5-4.5,10-10,10c-0.2,0-0.4,0-0.5,0l1.2-1.2c0.4-0.4,0.4-1,0-1.4s-1-0.4-1.4,0l-3,3C11.1,25.5,11,25.7,11,26s0.1,0.5,0.3,0.7
		l3,3c0.2,0.2,0.4,0.3,0.7,0.3c0.3,0,0.5-0.1,0.7-0.3c0.4-0.4,0.4-1,0-1.4L14.4,27c0.2,0,0.4,0,0.6,0C21.6,27,27,21.6,27,15z"/>
</g>
</svg>
