<?xml version="1.0" encoding="utf-8"?>
<!-- Generator: Adobe Illustrator 17.1.0, SVG Export Plug-In . SVG Version: 6.00 Build 0)  -->
<!DOCTYPE svg PUBLIC "-//W3C//DTD SVG 1.1//EN" "http://www.w3.org/Graphics/SVG/1.1/DTD/svg11.dtd">
<svg version="1.1" id="Слой_1" xmlns="http://www.w3.org/2000/svg" xmlns:xlink="http://www.w3.org/1999/xlink" x="0px" y="0px"
	 viewBox="0 0 50 50" enable-background="new 0 0 50 50" xml:space="preserve">
<path fill="#F1BF5D" d="M30,37.5c0,4.1-3.9,7.5-3.9,7.5s-3.9-3.4-3.9-7.5S24,30,26.1,30S30,33.4,30,37.5z"/>
<path fill="#FBDCAB" d="M28,37.2c0,2.8-2,5-2,5s-2-2.2-2-5s0.9-5,2-5S28,34.5,28,37.2z"/>
<path fill="#B2B2B2" d="M17.9,36.6l-0.6,1L14,40.9v-11c0.6-1.8,1.5-3.2,2.5-4.2L17.9,36.6z"/>
<path fill="#B2B2B2" d="M31.9,35V23c0,0,4.3,1.7,6.1,6.9v11L31.9,35z"/>
<path fill="#8E8E8E" d="M16,26.2c1.9-2.3,4-3.2,4-3.2v12l-3,2.9L16,26.2z"/>
<path fill="#D54F4F" d="M19.8,37c-1.7-3.9-2.8-9.4-2.8-15.5C17,9.6,24,0,26,0c2,0,9,9.6,9,21.5c0,6.1-1.1,11.6-2.8,15.5H19.8z"/>
<path fill="#BB4C46" d="M26,0c-2,0-9,9.6-9,21.5c0,6.1,1.1,11.6,2.8,15.5h1.3C19.1,9.1,26.8,0,26,0z"/>
<circle fill="#DEE5EB" cx="26" cy="16" r="3.8"/>
<path fill="#AB4943" d="M26,13c1.7,0,3,1.3,3,3s-1.3,3-3,3s-3-1.3-3-3S24.3,13,26,13 M26,12c-2.2,0-4,1.8-4,4s1.8,4,4,4s4-1.8,4-4
	S28.2,12,26,12L26,12z"/>
<path fill="#B2B2B2" d="M26,39.9L26,39.9L25.1,26c0-0.5,0.4-1,0.9-1h0c0.5,0,1,0.5,0.9,1L26,39.9z"/>
<g>
	<path fill="#CFD9E1" d="M21.1,43c-0.7,0-1.4,0.4-1.7,1c-0.1,0-0.2,0-0.3,0c-0.8,0-1.5,0.5-1.9,1.2C17,45.1,16.8,45,16.5,45
		c-0.3,0-0.5,0.1-0.8,0.2c0.1-0.2,0.2-0.5,0.2-0.7c0-0.8-0.7-1.5-1.5-1.5c-0.7,0-1.2,0.4-1.4,1c-1.6,0.1-2.9,1.4-2.9,3
		c0,1.7,1.3,3,3,3c1.3,0,2.5-0.9,2.8-2.1c0,0,0,0,0,0c0.2,0.7,0.8,1.1,1.5,1.1c0.6,0,1.1-0.4,1.4-0.9c0.1,0,0.1,0,0.2,0
		c0.8,0,1.5-0.5,1.9-1.2c0,0,0.1,0,0.1,0c1.1,0,2-0.9,2-2C23.1,43.9,22.2,43,21.1,43z"/>
	<path fill="#CFD9E1" d="M37.5,47c-0.3,0-0.6,0.1-0.8,0.3C36.5,47.1,36.3,47,36,47c0-1.1-0.9-2-2-2c-0.1,0-0.2,0-0.3,0
		c-0.3-0.6-1-1-1.7-1c-1.1,0-2,0.9-2,2c0,1.1,0.9,2,2,2c0.1,0,0.2,0,0.3,0c0.2,0.3,0.5,0.6,0.8,0.8c0.1,0.7,0.7,1.2,1.5,1.2
		c0.6,0,1.2-0.4,1.4-1c0,0,0.1,0,0.1,0c0,0,0.1,0,0.1,0c0.2,0.6,0.8,1,1.4,1c0.8,0,1.5-0.7,1.5-1.5S38.3,47,37.5,47z"/>
</g>
</svg>
