<?xml version="1.0" encoding="utf-8"?>
<!-- Generator: Adobe Illustrator 17.1.0, SVG Export Plug-In . SVG Version: 6.00 Build 0)  -->
<!DOCTYPE svg PUBLIC "-//W3C//DTD SVG 1.1//EN" "http://www.w3.org/Graphics/SVG/1.1/DTD/svg11.dtd">
<svg version="1.1" id="Слой_1" xmlns="http://www.w3.org/2000/svg" xmlns:xlink="http://www.w3.org/1999/xlink" x="0px" y="0px"
	 viewBox="0 0 40 40" enable-background="new 0 0 40 40" xml:space="preserve">
<path d="M30.4,7c-0.8-0.5-1.7-0.8-2.5-0.8c-1.2,0-2,0.5-2.6,0.9c-0.5,0.4-0.8,1-0.8,1.6v2.8c-0.3-0.1-0.6-0.1-0.9-0.1
	c-0.8,0-1.6,0.3-2.1,0.6c-0.9-0.6-2.1-0.7-3-0.4l0-3c0-0.5-0.2-1-0.5-1.3c-1-1-2-1.6-3.2-1.6c-1.5,0-2.7,0.9-3.1,1.8
	c-0.2,0.3-0.2,0.6-0.2,0.9l-0.1,9.9c-1.8-1-3.1-1.1-3.7-1.1c-0.4,0-0.8,0.2-1.1,0.4c-0.1,0.1-2.1,1.7-2,3.5c0.1,0.6,0.4,1.4,1.5,2
	c4.3,2.2,6.8,5.7,8.6,8.3c1.2,1.7,2,2.9,3.1,3.4c0,0,0.1,0,0.1,0.1c0.2,0.1,0.6,0.3,1,0.3h7.6c3.1,0,4-2,4-3l0.9-23.5
	C31.4,8.1,31.1,7.4,30.4,7z M28.5,32.2c0,0-0.1,1.1-2,1.1H19c0,0-0.1,0-0.1-0.1c-0.1,0-0.2-0.1-0.3-0.1c-0.6-0.3-1.4-1.5-2.3-2.8
	c-1.9-2.7-4.5-6.5-9.3-8.9c-0.2-0.1-0.4-0.3-0.4-0.4c0-0.5,0.7-1.4,1.2-1.8l0.1,0c0.4,0,1.2,0.1,2.5,0.8c0.3,0.2,0.7,0.3,1,0.3
	c1.1,0,2-0.9,2-2l0-9.9c0.1-0.2,0.6-0.8,1.4-0.8c0.5,0,1.1,0.3,1.6,0.8l0.1,8.5c0,0.6,0.5,1,1,1c0,0,0,0,0,0c0.6,0,1-0.5,1-1l0-3.3
	c0.4-0.3,1.2-0.6,2,0v3.4c0,0.6,0.4,1,1,1c0.6,0,1-0.4,1-1v-3.4c0.4-0.3,1.3-0.6,2,0v3.5c0,0.6,0.4,1,1,1s1-0.4,1-1l0-8.5
	c0.3-0.2,0.8-0.5,1.4-0.5c0.5,0,1,0.2,1.5,0.5L28.5,32.2z"/>
</svg>
