<?xml version="1.0" encoding="utf-8"?>
<!-- Generator: Adobe Illustrator 17.1.0, SVG Export Plug-In . SVG Version: 6.00 Build 0)  -->
<!DOCTYPE svg PUBLIC "-//W3C//DTD SVG 1.1//EN" "http://www.w3.org/Graphics/SVG/1.1/DTD/svg11.dtd">
<svg version="1.1" id="Слой_1" xmlns="http://www.w3.org/2000/svg" xmlns:xlink="http://www.w3.org/1999/xlink" x="0px" y="0px"
	 viewBox="0 0 20 20" enable-background="new 0 0 20 20" xml:space="preserve">
<path fill="#FFFFFF" d="M16.7,14.3l-3.5-3.5C13.7,10,14,9,14,8c0-2.8-2.2-5-5-5S4,5.2,4,8s2.2,5,5,5c1,0,2-0.3,2.8-0.8l3.5,3.5
	c0.2,0.2,0.5,0.3,0.7,0.3s0.5-0.1,0.7-0.3C17.1,15.3,17.1,14.7,16.7,14.3z M6,8c0-1.7,1.3-3,3-3s3,1.3,3,3c0,1.7-1.3,3-3,3
	S6,9.7,6,8z"/>
</svg>
