<?xml version="1.0" encoding="utf-8"?>
<!-- Generator: Adobe Illustrator 17.1.0, SVG Export Plug-In . SVG Version: 6.00 Build 0)  -->
<!DOCTYPE svg PUBLIC "-//W3C//DTD SVG 1.1//EN" "http://www.w3.org/Graphics/SVG/1.1/DTD/svg11.dtd">
<svg version="1.1" id="Слой_1" xmlns="http://www.w3.org/2000/svg" xmlns:xlink="http://www.w3.org/1999/xlink" x="0px" y="0px"
	 viewBox="0 0 50 50" enable-background="new 0 0 50 50" xml:space="preserve">
<circle fill="#DEE5EB" cx="17.5" cy="17.5" r="15.5"/>
<path fill="#CFD9E1" d="M28.5,6.5c6.1,6.1,6.1,15.9,0,21.9s-15.9,6.1-21.9,0l0,0C24.1,28.5,28.5,24,28.5,6.5L28.5,6.5z"/>
<path fill="#B2B2B2" d="M35,17.5C35,7.8,27.2,0,17.5,0C7.8,0,0,7.8,0,17.5S7.8,35,17.5,35c4.1,0,7.9-1.4,10.9-3.8l2.1,2.1l2.8-2.8
	l-2.1-2.1C33.6,25.4,35,21.6,35,17.5z M3,17.5C3,9.5,9.5,3,17.5,3C25.5,3,32,9.5,32,17.5c0,8-6.5,14.5-14.5,14.5
	C9.5,32,3,25.5,3,17.5z"/>
<path fill="#403730" d="M31.6,30.4l-3.5,3.5c-0.8,0.8-0.8,2,0,2.8l12.7,12.7c0.8,0.8,2,0.8,2.8,0l3.5-3.5L31.6,30.4z"/>
<path fill="#544A42" d="M46.4,46.6l2.9-2.9c0.8-0.8,0.8-2,0-2.8L36.5,28.2c-0.8-0.8-2-0.8-2.8,0l-2.8,2.9L46.4,46.6z"/>
</svg>
