<?xml version="1.0" encoding="utf-8"?>
<!-- Generator: Adobe Illustrator 17.1.0, SVG Export Plug-In . SVG Version: 6.00 Build 0)  -->
<!DOCTYPE svg PUBLIC "-//W3C//DTD SVG 1.1//EN" "http://www.w3.org/Graphics/SVG/1.1/DTD/svg11.dtd">
<svg version="1.1" id="Слой_1" xmlns="http://www.w3.org/2000/svg" xmlns:xlink="http://www.w3.org/1999/xlink" x="0px" y="0px"
	 viewBox="0 0 30 30" enable-background="new 0 0 30 30" xml:space="preserve">
<g>
	<path fill="#7C91A0" d="M21,13v-2c0-3.3-2.7-6-6-6s-6,2.7-6,6v2c-1.1,0-2,0.9-2,2v8c0,1.1,0.9,2,2,2h12c1.1,0,2-0.9,2-2v-8
		C23,13.9,22.1,13,21,13z M11,11c0-2.2,1.8-4,4-4c2.2,0,4,1.8,4,4v2h-8V11z M21,23H9v-8h12V23z"/>
	<path fill="#7C91A0" d="M14,19.7V21c0,0.6,0.4,1,1,1s1-0.4,1-1v-1.3c0.6-0.3,1-1,1-1.7c0-1.1-0.9-2-2-2s-2,0.9-2,2
		C13,18.7,13.4,19.4,14,19.7z"/>
</g>
</svg>
