<?xml version="1.0" encoding="utf-8"?>
<!-- Generator: Adobe Illustrator 17.1.0, SVG Export Plug-In . SVG Version: 6.00 Build 0)  -->
<!DOCTYPE svg PUBLIC "-//W3C//DTD SVG 1.1//EN" "http://www.w3.org/Graphics/SVG/1.1/DTD/svg11.dtd">
<svg version="1.1" id="Слой_1" xmlns="http://www.w3.org/2000/svg" xmlns:xlink="http://www.w3.org/1999/xlink" x="0px" y="0px"
	 viewBox="0 0 30 30" enable-background="new 0 0 30 30" xml:space="preserve">
<g>
	<path fill="none" d="M9,16c0,3.3,2.7,6,6,6s6-2.7,6-6v-5H9V16z"/>
	<path fill="#48555C" d="M21,9H9H7v2v5c0,4.1,3.1,7.4,7,7.9V28h2v-4.1c3.9-0.5,7-3.9,7-7.9v-5V9H21z M21,16c0,3.3-2.7,6-6,6
		s-6-2.7-6-6v-5h12V16z"/>
</g>
<path fill="#B1BCC2" d="M16,20.9C15.7,21,15.4,21,15,21l0,0c-2.8,0-5-2.2-5-5V5c0-2.8,2.2-5,5-5l0,0c0.3,0,0.7,0,1,0.1L16,20.9z"/>
<path fill="#DCE5EA" d="M15,21L15,21c2.8,0,5-2.2,5-5V5c0-2.8-2.2-5-5-5l0,0v10V21z"/>
<rect x="10" y="28" fill="#67767C" width="10" height="2"/>
<g>
	<circle fill="#6F7D82" cx="13.5" cy="2.5" r="0.5"/>
	<circle fill="#6F7D82" cx="13.5" cy="4.5" r="0.5"/>
	<circle fill="#6F7D82" cx="13.5" cy="6.5" r="0.5"/>
	<circle fill="#6F7D82" cx="13.5" cy="8.5" r="0.5"/>
	<circle fill="#6F7D82" cx="13.5" cy="10.5" r="0.5"/>
	<circle fill="#6F7D82" cx="13.5" cy="12.5" r="0.5"/>
	<circle fill="#6F7D82" cx="13.5" cy="14.5" r="0.5"/>
	<circle fill="#6F7D82" cx="13.5" cy="16.5" r="0.5"/>
	<circle fill="#6F7D82" cx="13.5" cy="18.5" r="0.5"/>
	<circle fill="#6F7D82" cx="11.5" cy="13.5" r="0.5"/>
	<circle fill="#6F7D82" cx="11.5" cy="15.5" r="0.5"/>
	<circle fill="#6F7D82" cx="11.5" cy="11.5" r="0.5"/>
	<circle fill="#6F7D82" cx="11.5" cy="9.5" r="0.5"/>
	<circle fill="#6F7D82" cx="11.5" cy="7.5" r="0.5"/>
	<circle fill="#6F7D82" cx="11.5" cy="5.5" r="0.5"/>
	<circle fill="#6F7D82" cx="11.5" cy="3.5" r="0.5"/>
	<circle fill="#6F7D82" cx="11.5" cy="17.5" r="0.5"/>
	<circle fill="#6F7D82" cx="17.5" cy="2.5" r="0.5"/>
	<circle fill="#6F7D82" cx="17.5" cy="4.5" r="0.5"/>
	<circle fill="#6F7D82" cx="17.5" cy="6.5" r="0.5"/>
	<circle fill="#6F7D82" cx="17.5" cy="8.5" r="0.5"/>
	<circle fill="#6F7D82" cx="17.5" cy="10.5" r="0.5"/>
	<circle fill="#6F7D82" cx="17.5" cy="12.5" r="0.5"/>
	<circle fill="#6F7D82" cx="17.5" cy="14.5" r="0.5"/>
	<circle fill="#6F7D82" cx="17.5" cy="16.5" r="0.5"/>
	<circle fill="#6F7D82" cx="17.5" cy="18.5" r="0.5"/>
	<circle fill="#6F7D82" cx="15.5" cy="13.5" r="0.5"/>
	<circle fill="#6F7D82" cx="15.5" cy="15.5" r="0.5"/>
	<circle fill="#6F7D82" cx="15.5" cy="11.5" r="0.5"/>
	<circle fill="#6F7D82" cx="15.5" cy="9.5" r="0.5"/>
	<circle fill="#6F7D82" cx="15.5" cy="7.5" r="0.5"/>
	<circle fill="#6F7D82" cx="15.5" cy="5.5" r="0.5"/>
	<circle fill="#6F7D82" cx="15.5" cy="3.5" r="0.5"/>
	<circle fill="#6F7D82" cx="15.5" cy="17.5" r="0.5"/>
	<circle fill="#6F7D82" cx="15.5" cy="19.5" r="0.5"/>
	<circle fill="#6F7D82" cx="15.5" cy="1.5" r="0.5"/>
</g>
</svg>
