<?xml version="1.0" encoding="utf-8"?>
<!-- Generator: Adobe Illustrator 17.1.0, SVG Export Plug-In . SVG Version: 6.00 Build 0)  -->
<!DOCTYPE svg PUBLIC "-//W3C//DTD SVG 1.1//EN" "http://www.w3.org/Graphics/SVG/1.1/DTD/svg11.dtd">
<svg version="1.1" id="Слой_1" xmlns="http://www.w3.org/2000/svg" xmlns:xlink="http://www.w3.org/1999/xlink" x="0px" y="0px"
	 viewBox="0 0 30 30" enable-background="new 0 0 30 30" xml:space="preserve">
<g>
	<path fill="none" d="M9.5,16L9.5,16C8.1,16,7,17.1,7,18.5V20h5v-1.5C12,17.1,10.9,16,9.5,16z"/>
	<polygon fill="none" points="19,27 19,25 19,23 15,23 15,27 	"/>
	<rect x="7" y="23" fill="none" width="5" height="4"/>
	<path fill="#E3BE63" d="M22,9c0-0.1,0-0.2,0-0.3C22,8.8,22,8.9,22,9L22,9z"/>
	<path fill="#E3BE63" d="M21.3,1h7c0,0,0,0,0,0H12.7C19,6,19,9,19,9l0,21h2.3V1z"/>
	<path fill="#EFD48E" d="M22,9c0-0.1,0-0.2,0-0.3c0.4-3,6.2-7.7,6.2-7.7h0H21l0,29h1C22,22,22,11.7,22,9L22,9z"/>
	<rect x="15" y="23" fill="#E3BE63" width="0" height="4"/>
	<path fill="#E3BE63" d="M7,30V18.5C7,17.1,8.1,16,9.5,16c0.2,0,0.3,0,0.5,0l0-3c-0.2,0-0.3,0-0.5,0c-3,0-5.5,2.5-5.5,5.5V30L7,30z"
		/>
	<path fill="#EFD48E" d="M9.5,13v3v0c1.4,0,2.5,1.1,2.5,2.5V30h3V18.5C15,15.5,12.5,13,9.5,13z"/>
	<path fill="#F4F4F4" d="M23.9,22h1.6v0c0,0.5,0.4,1,1,1c0.6,0,1-0.4,1-1v-1c0-0.5-0.4-1-1-1c-0.6,0-1,0.4-1,1v0h-1.6
		C23.9,21.2,23.9,21.8,23.9,22z"/>
	<path fill="#F4F4F4" d="M23.9,29h1.6v0c0,0.5,0.4,1,1,1c0.6,0,1-0.4,1-1v-1c0-0.5-0.4-1-1-1c-0.6,0-1,0.4-1,1v0h-1.6
		C23.9,28.2,23.9,28.8,23.9,29z"/>
	<path fill="#C8DFD5" d="M19,20h-4h0h-3H7H4H3.5C2.7,20,2,20.7,2,21.5C2,22.3,2.7,23,3.5,23H4h3h5h3h0h4h2h1h1.5
		c0.7,0,1.2-0.4,1.4-1c0.1-0.2,0.1-0.3,0.1-0.5c0-0.2,0-0.3-0.1-0.5c-0.2-0.6-0.8-1-1.4-1H22h-1H19z"/>
	<path fill="#C8DFD5" d="M19,27h-4h0h-3H7H4H3.5C2.7,27,2,27.7,2,28.5C2,29.3,2.7,30,3.5,30H4h3h5h3h0h4h2h1h1.5
		c0.7,0,1.2-0.4,1.4-1c0.1-0.2,0.1-0.3,0.1-0.5c0-0.2,0-0.3-0.1-0.5c-0.2-0.6-0.8-1-1.4-1H22h-1H19z"/>
</g>
</svg>
