<?xml version="1.0" encoding="utf-8"?>
<!-- Generator: Adobe Illustrator 17.1.0, SVG Export Plug-In . SVG Version: 6.00 Build 0)  -->
<!DOCTYPE svg PUBLIC "-//W3C//DTD SVG 1.1//EN" "http://www.w3.org/Graphics/SVG/1.1/DTD/svg11.dtd">
<svg version="1.1" id="Слой_1" xmlns="http://www.w3.org/2000/svg" xmlns:xlink="http://www.w3.org/1999/xlink" x="0px" y="0px"
	 viewBox="0 0 30 30" enable-background="new 0 0 30 30" xml:space="preserve">
<circle fill="#5479B5" cx="15" cy="15" r="15"/>
<path id="Facebook" fill="#FFFFFF" d="M12.7,10.2c0,0.4,0,2.2,0,2.2h-1.6v2.7h1.6v8H16v-8h2.2c0,0,0.2-1.3,0.3-2.7
	c-0.3,0-2.5,0-2.5,0s0-1.6,0-1.8c0-0.3,0.4-0.6,0.7-0.6c0.4,0,1.1,0,1.8,0c0-0.4,0-1.6,0-2.8c-0.9,0-2,0-2.5,0
	C12.6,7.1,12.7,9.8,12.7,10.2z"/>
</svg>
