<?xml version="1.0" encoding="utf-8"?>
<!-- Generator: Adobe Illustrator 16.0.0, SVG Export Plug-In . SVG Version: 6.00 Build 0)  -->
<!DOCTYPE svg PUBLIC "-//W3C//DTD SVG 1.1//EN" "http://www.w3.org/Graphics/SVG/1.1/DTD/svg11.dtd">
<svg version="1.1" id="Layer_1" xmlns="http://www.w3.org/2000/svg" xmlns:xlink="http://www.w3.org/1999/xlink" x="0px" y="0px"
	 width="30px" height="30px" viewBox="0 0 30 30" enable-background="new 0 0 30 30" xml:space="preserve">
<g>
	<defs>
		<rect id="SVGID_1_" width="30" height="30"/>
	</defs>
	<clipPath id="SVGID_2_">
		<use xlink:href="#SVGID_1_"  overflow="visible"/>
	</clipPath>
	<path clip-path="url(#SVGID_2_)" fill="#86C9E6" d="M30,15c0,8.3-6.7,15-15,15S0,23.3,0,15S6.7,0,15,0S30,6.7,30,15"/>
	<path clip-path="url(#SVGID_2_)" fill="#FFFFFF" d="M22.2,10.5c-0.5,0.2-1.1,0.4-1.7,0.5c0.6-0.4,1.1-1,1.3-1.7
		c-0.6,0.3-1.2,0.6-1.9,0.7c-0.5-0.6-1.3-0.9-2.1-0.9c-1.6,0-2.9,1.3-2.9,3c0,0.2,0,0.5,0.1,0.7c-2.4-0.1-4.6-1.3-6.1-3.1
		c-0.3,0.4-0.4,1-0.4,1.5c0,1,0.5,2,1.3,2.5c-0.5,0-0.9-0.2-1.3-0.4v0c0,1.5,1,2.7,2.4,2.9c-0.2,0.1-0.5,0.1-0.8,0.1
		c-0.2,0-0.4,0-0.6-0.1c0.4,1.2,1.5,2.1,2.7,2.1c-1,0.8-2.3,1.3-3.6,1.3c-0.2,0-0.5,0-0.7,0c1.3,0.9,2.8,1.4,4.5,1.4
		c5.4,0,8.4-4.6,8.4-8.6l0-0.4C21.3,11.6,21.8,11.1,22.2,10.5"/>
</g>
</svg>
