<?xml version="1.0" encoding="utf-8"?>
<!-- Generator: Adobe Illustrator 17.1.0, SVG Export Plug-In . SVG Version: 6.00 Build 0)  -->
<!DOCTYPE svg PUBLIC "-//W3C//DTD SVG 1.1//EN" "http://www.w3.org/Graphics/SVG/1.1/DTD/svg11.dtd">
<svg version="1.1" id="Слой_1" xmlns="http://www.w3.org/2000/svg" xmlns:xlink="http://www.w3.org/1999/xlink" x="0px" y="0px"
	 viewBox="0 0 30 30" enable-background="new 0 0 30 30" xml:space="preserve">
<circle fill="#3C7395" cx="15" cy="15" r="15"/>
<path fill="#FFFFFF" d="M23.4,11.4c-0.1-0.3-0.9-0.3-0.9-0.3l-2.5,0c0,0-0.2,0-0.3,0.1c-0.1,0.1-0.2,0.3-0.2,0.3s-0.4,1.1-0.9,2
	c-1.1,1.9-1.6,2-1.8,1.9c-0.4-0.3-0.3-1.1-0.3-1.7c0-1.9,0.3-2.6-0.6-2.8c-0.3-0.1-0.5-0.1-1.2-0.1c-0.9,0-1.7,0-2.1,0.2
	c-0.3,0.1-0.5,0.5-0.4,0.5c0.2,0,0.5,0.1,0.8,0.4c0.3,0.4,0.3,1.2,0.3,1.2s0.2,2.2-0.4,2.5c-0.3,0.2-0.8-0.2-1.8-1.9
	c-0.5-0.9-0.9-1.9-0.9-1.9s-0.1-0.2-0.2-0.3c-0.2-0.1-0.4-0.2-0.4-0.2l-2.4,0c0,0-0.4,0-0.5,0.2c-0.1,0.1,0,0.4,0,0.4s1.9,4.4,4,6.6
	c2,2,4.2,1.8,4.2,1.8h1c0,0,0.3,0.1,0.5-0.1c0.1-0.2,0.1-0.3,0.1-0.3s0-1.4,0.6-1.6c0.6-0.2,1.4,1.3,2.3,1.9
	c0.6,0.4,1.1,0.3,1.1,0.3l2.3,0c0,0,1.2-0.1,0.6-1c0-0.1-0.3-0.7-1.7-1.9c-1.4-1.3-1.2-1.1,0.5-3.4C23.2,12.6,23.6,11.7,23.4,11.4z"
	/>
</svg>
