<?xml version="1.0" encoding="utf-8"?>
<!-- Generator: Adobe Illustrator 17.1.0, SVG Export Plug-In . SVG Version: 6.00 Build 0)  -->
<!DOCTYPE svg PUBLIC "-//W3C//DTD SVG 1.1//EN" "http://www.w3.org/Graphics/SVG/1.1/DTD/svg11.dtd">
<svg version="1.1" id="Слой_1" xmlns="http://www.w3.org/2000/svg" xmlns:xlink="http://www.w3.org/1999/xlink" x="0px" y="0px"
	 viewBox="0 0 30 30" enable-background="new 0 0 30 30" xml:space="preserve">
<g>
	<path d="M25,8H5c-1.1,0-2,0.9-2,2v10c0,1.1,0.9,2,2,2h20c1.1,0,2-0.9,2-2V10C27,8.9,26.1,8,25,8z M21.1,20H8.9
		c-0.3-1.6-1.4-3.5-3.9-3.9v-2.2c1.6-0.3,3.5-1.4,3.9-3.9h12.2c0.4,2.5,2.4,3.6,3.9,3.9v2.2C23.4,16.4,21.5,17.5,21.1,20z M25,11.8
		c-0.7-0.2-1.6-0.7-1.9-1.8H25V11.8z M6.9,10c-0.3,1.1-1.2,1.6-1.9,1.8V10H6.9z M5,18.1c1.2,0.3,1.6,1.2,1.9,1.9H5V18.1z M23.1,20
		c0.3-1.1,1.2-1.6,1.9-1.8V20H23.1z"/>
	<path d="M15,11c-2.2,0-4,1.8-4,4c0,2.2,1.8,4,4,4s4-1.8,4-4C19,12.8,17.2,11,15,11z M15,17c-1.1,0-2-0.9-2-2c0-1.1,0.9-2,2-2
		s2,0.9,2,2C17,16.1,16.1,17,15,17z"/>
</g>
</svg>
