<?xml version="1.0" encoding="utf-8"?>
<!-- Generator: Adobe Illustrator 17.1.0, SVG Export Plug-In . SVG Version: 6.00 Build 0)  -->
<!DOCTYPE svg PUBLIC "-//W3C//DTD SVG 1.1//EN" "http://www.w3.org/Graphics/SVG/1.1/DTD/svg11.dtd">
<svg version="1.1" id="Слой_1" xmlns="http://www.w3.org/2000/svg" xmlns:xlink="http://www.w3.org/1999/xlink" x="0px" y="0px"
	 viewBox="0 0 20 20" enable-background="new 0 0 20 20" xml:space="preserve">
<path fill="#050606" d="M14,14H7c-0.7,0-1.1-0.3-1.4-0.6C5,12.9,5,12.1,5,12V5c0,0,0,0-0.1,0L3,5C2.5,5,2,4.6,2,4s0.4-1,1-1H5
	c1,0,2,0.7,2,2v7c0,0,0,0,0,0l6.8,0c0.1-0.1,0.2-0.3,0.2-0.4L15.9,7H10C9.5,7,9,6.6,9,6s0.4-1,1-1h6c0,0,0,0,0,0
	c0.9,0,1.5,0.3,1.9,0.8c0.5,0.8,0.1,1.5,0,1.7l-2,4.9C15.8,12.7,15.2,14,14,14z"/>
<circle fill="#050606" cx="7.5" cy="15.5" r="1.5"/>
<circle fill="#050606" cx="12.5" cy="15.5" r="1.5"/>
</svg>
