<?xml version="1.0" encoding="utf-8"?>
<!-- Generator: Adobe Illustrator 17.1.0, SVG Export Plug-In . SVG Version: 6.00 Build 0)  -->
<!DOCTYPE svg PUBLIC "-//W3C//DTD SVG 1.1//EN" "http://www.w3.org/Graphics/SVG/1.1/DTD/svg11.dtd">
<svg version="1.1" id="Слой_1" xmlns="http://www.w3.org/2000/svg" xmlns:xlink="http://www.w3.org/1999/xlink" x="0px" y="0px"
	 viewBox="0 0 40 40" enable-background="new 0 0 40 40" xml:space="preserve">
<g>
	<path d="M20,5C11.7,5,5,11.7,5,20c0,8.3,6.7,15,15,15s15-6.7,15-15C35,11.7,28.3,5,20,5z M20,33c-7.2,0-13-5.8-13-13S12.8,7,20,7
		s13,5.8,13,13S27.2,33,20,33z"/>
	<path d="M20,15c-2.8,0-5,2.2-5,5s2.2,5,5,5s5-2.2,5-5S22.8,15,20,15z M20,21c-0.6,0-1-0.4-1-1c0-0.6,0.4-1,1-1s1,0.4,1,1
		C21,20.6,20.6,21,20,21z"/>
	<path d="M20,10c-0.6,0-1,0.4-1,1s0.4,1,1,1c4.4,0,8,3.6,8,8c0,0.6,0.4,1,1,1s1-0.4,1-1C30,14.5,25.5,10,20,10z"/>
</g>
</svg>
