<?xml version="1.0" encoding="utf-8"?>
<!-- Generator: Adobe Illustrator 17.1.0, SVG Export Plug-In . SVG Version: 6.00 Build 0)  -->
<!DOCTYPE svg PUBLIC "-//W3C//DTD SVG 1.1//EN" "http://www.w3.org/Graphics/SVG/1.1/DTD/svg11.dtd">
<svg version="1.1" id="Слой_1" xmlns="http://www.w3.org/2000/svg" xmlns:xlink="http://www.w3.org/1999/xlink" x="0px" y="0px"
	 viewBox="0 0 40 40" enable-background="new 0 0 40 40" xml:space="preserve">
<g>
	<path d="M15,11c-2.1,0-3,1.8-3,2.9c0,0.5,0.4,1,1,1c0.6,0,1-0.4,1-0.9c0-0.4,0.2-1,1-1c0.8,0,1,0.6,1,1c0,0.5,0.5,1,1,1
		c0,0,0,0,0,0c0.6,0,1-0.5,1-1C18,12.7,17.1,11,15,11z"/>
	<path d="M35.5,12.8c-0.4-0.5-0.9-0.7-1.5-0.8c-0.1,0-0.2,0-0.3,0c-2.9,0-4.8,4.2-5.4,6H22v-6c0-2.1-1.5-6-7-6
		c-5.3,0-7.4,3.6-7.9,5.7L4.7,9.3C4.3,9,3.7,9,3.3,9.4c-0.4,0.4-0.4,1,0,1.4l3.2,3.1l-3.1,2.4c-0.4,0.3-0.5,1-0.2,1.4
		C3.4,17.9,3.7,18,4,18c0.2,0,0.4-0.1,0.6-0.2L7,16l0,4l0,0.2c0,0.1,0.6,3.5,2.5,6.8c2.6,4.6,6.6,7,11.5,7c9.4,0,12.8-6.9,13.7-10.9
		c1-2.6,1.3-7.8,1.3-7.9C36.1,14.9,36.2,13.7,35.5,12.8z M27,24c-1.8,0-3.1-0.5-3.9-1.4c-0.7-0.8-1-1.9-1-2.6l10.8,0
		c0,0.1,0.1,0.3,0.1,0.9c0,0,0,0.1,0,0.2C32.9,21.7,32,23.9,27,24z M33.8,14c0.1,0,0.1,0,0.1,0c0.1,0.1,0.1,0.6,0.1,0.9
		c0,0.7-0.2,1.9-0.3,3.2C33.4,18,33.1,18,33,18h-2.6C31.3,16,32.6,13.9,33.8,14z M21,32c-4.1,0-7.4-2-9.7-5.9
		c-1.6-2.8-2.2-5.6-2.3-6.1v-7.8C9.2,11.5,10.2,8,15,8c4.8,0,5,3.6,5,4v8h0c0.1,1,0.4,2.6,1.5,3.9c1.2,1.4,3,2.1,5.4,2.1
		c0,0,0,0,0.1,0c2.2,0,3.8-0.4,4.9-1C30.6,28.2,27.6,32,21,32z"/>
</g>
</svg>
