<?xml version="1.0" encoding="utf-8"?>
<!-- Generator: Adobe Illustrator 17.1.0, SVG Export Plug-In . SVG Version: 6.00 Build 0)  -->
<!DOCTYPE svg PUBLIC "-//W3C//DTD SVG 1.1//EN" "http://www.w3.org/Graphics/SVG/1.1/DTD/svg11.dtd">
<svg version="1.1" id="Слой_1" xmlns="http://www.w3.org/2000/svg" xmlns:xlink="http://www.w3.org/1999/xlink" x="0px" y="0px"
	 viewBox="0 0 40 40" enable-background="new 0 0 40 40" xml:space="preserve">
<path d="M35.4,6.4C34.9,5.5,34,5,33,5h-2.6c-0.4,0-0.8,0.1-1.3,0.2c-0.4,0.1-0.9,0.3-1.5,0.6c0,0,0,0,0,0C25.1,7,21.1,9.5,21.1,14
	H20c-0.6,0-1,0.4-1,1s0.4,1,1,1h1c0,0.7,0,1.4,0,2h-2c-0.6,0-1,0.4-1,1c0,0.6,0.4,1,1,1h2c0,1.4,0,2.6,0,3.4c0,0.5-0.2,0.8-0.4,1
	c-0.3,0.2-0.6,0.4-1,0.4c-0.2,0-0.6-0.1-0.9-0.5c-1.3-1.4-1.6-2.6-1.7-3.1c0.3-0.5,0.5-1,0.5-1.6c0-0.8-0.2-1.5-0.8-2.1
	c-0.6-0.7-1.4-1.1-2.3-1.1c-0.7,0-1.4,0.2-1.9,0.7l-6.9,6c-0.6,0.5-1,1.3-1,2.1c0,0.8,0.2,1.5,0.8,2.1c0.6,0.7,1.4,1.1,2.3,1.1
	c0.3,0,0.7-0.1,1-0.2C10.3,30.2,14.7,35,20,35c6.6,0,9-4.6,9-9V14c0-0.3,0.1-3,3-3h0.6c1.1,0,2.2-0.6,2.8-1.6
	C36,8.4,36,7.3,35.4,6.4z M7,26.1c-0.4-0.4-0.3-1,0-1.4l6.9-6c0.2-0.1,0.4-0.2,0.6-0.2c0.3,0,0.6,0.1,0.8,0.4c0.4,0.4,0.3,1,0,1.4
	l-6.9,6c-0.2,0.1-0.4,0.2-0.6,0.2C7.5,26.5,7.2,26.4,7,26.1z M27,14v12c0,2.1-0.7,7-7,7c-4.3,0-8.2-4.1-9.6-5.8l5-4.3
	c0.3,0.8,0.9,1.8,1.8,2.9c0,0,0.1,0.1,0.1,0.1c0.6,0.7,1.5,1,2.4,1c0.8,0,1.7-0.3,2.3-0.9c0.7-0.6,1.1-1.5,1.1-2.4
	c0-1.6,0-4.3,0-7.4c0.5,0,1-0.5,1-1c0-0.5-0.4-1-0.9-1c0-2.8,2.2-4.7,4.2-5.8c0.2,0.6,0.5,1.2,1,1.8c0.1,0.1,0.2,0.2,0.3,0.2
	C27.4,11.4,27,13,27,14z M33.7,8.4c-0.2,0.3-0.5,0.6-1,0.6H32c-0.4,0-0.7,0-1.1,0.1c-1.3,0-1.7-1-1.9-1.7c0.3-0.1,0.5-0.2,0.7-0.3
	C30,7.1,30.3,7,30.5,7H33c0.3,0,0.5,0.1,0.7,0.4C33.9,7.8,33.8,8.2,33.7,8.4z"/>
</svg>
