<?xml version="1.0" encoding="utf-8"?>
<!-- Generator: Adobe Illustrator 17.1.0, SVG Export Plug-In . SVG Version: 6.00 Build 0)  -->
<!DOCTYPE svg PUBLIC "-//W3C//DTD SVG 1.1//EN" "http://www.w3.org/Graphics/SVG/1.1/DTD/svg11.dtd">
<svg version="1.1" id="Слой_1" xmlns="http://www.w3.org/2000/svg" xmlns:xlink="http://www.w3.org/1999/xlink" x="0px" y="0px"
	 viewBox="0 0 40 40" enable-background="new 0 0 40 40" xml:space="preserve">
<path d="M24,0h-8c-2.2,0-4,1.8-4,4v14c0,2.2,1.8,4,4,4c0.1,0.8,0.4,2,1.2,2.9c0.5,0.5,1.1,0.9,1.8,1V29c0,0.6,0.4,1,1,1s1-0.4,1-1
	v-3.1c0.6-0.2,1.1-0.4,1.6-0.9c0.9-0.9,1.2-2.1,1.4-3H24c2.2,0,4-1.8,4-4V4C28,1.8,26.2,0,24,0z M21.1,23.6C20.8,23.9,20.5,24,20,24
	h0c-0.6,0-1-0.2-1.4-0.5c-0.4-0.4-0.6-1-0.6-1.5h3.9C21.8,22.5,21.5,23.2,21.1,23.6z M24,20h-8c-1.1,0-2-0.9-2-2v-1h4
	c0.5,0,1-0.4,1-1c0-0.6-0.4-1-1-1h-4v-1h4c0.5,0,1-0.4,1-1c0-0.6-0.4-1-1-1h-4v-1h4c0.5,0,1-0.4,1-1c0-0.6-0.4-1-1-1h-4V8h4
	c0.5,0,1-0.4,1-1c0-0.6-0.4-1-1-1h-4V4c0-1.1,0.9-2,2-2h8c1.1,0,2,0.9,2,2v2h-4c-0.5,0-1,0.4-1,1c0,0.6,0.4,1,1,1h4v1h-4
	c-0.5,0-1,0.4-1,1c0,0.6,0.4,1,1,1h4v1h-4c-0.5,0-1,0.4-1,1c0,0.6,0.4,1,1,1h4v1h-4c-0.5,0-1,0.4-1,1c0,0.6,0.4,1,1,1h4v1
	C26,19.1,25.1,20,24,20z"/>
</svg>
