<?xml version="1.0" encoding="utf-8"?>
<!-- Generator: Adobe Illustrator 16.0.0, SVG Export Plug-In . SVG Version: 6.00 Build 0)  -->
<!DOCTYPE svg PUBLIC "-//W3C//DTD SVG 1.1//EN" "http://www.w3.org/Graphics/SVG/1.1/DTD/svg11.dtd">
<svg version="1.1" id="Layer_1" xmlns="http://www.w3.org/2000/svg" xmlns:xlink="http://www.w3.org/1999/xlink" x="0px" y="0px"
	 width="40px" height="40px" viewBox="0 0 40 40" enable-background="new 0 0 40 40" xml:space="preserve">
<g>
	<defs>
		<rect id="SVGID_1_" width="40" height="40"/>
	</defs>
	<clipPath id="SVGID_2_">
		<use xlink:href="#SVGID_1_"  overflow="visible"/>
	</clipPath>
	<path clip-path="url(#SVGID_2_)" d="M20,7c4.5,0,7.8,1,9.6,2.8c1.4,1.5,1.4,3,1.4,3c0,0.1-1.1,13.9-11,20.3l-0.1,0
		c-0.9-0.6-9.5-6.2-10.8-20.2c0-0.2,0-1.7,1.4-3C12.2,8,15.5,7,20,7 M20,5C6.5,5,7.1,12.9,7.1,12.9C8.6,28.9,19,34.8,19,34.8l1,0.4
		l0.9-0.4C32,27.9,33,12.9,33,12.9S33.5,5,20,5"/>
	<path clip-path="url(#SVGID_2_)" fill="#090B0F" d="M24,16.9v-2.4h-0.2v1.2c-0.1-0.4-0.3-0.7-0.6-1c-0.7-1.1-1.9-1.7-3.3-1.7
		c-2.2,0-4.1,1.9-4.1,4.1c0,2.3,1.8,4.1,4.1,4.1c1.5,0,2.9-0.9,3.6-2.1C23.8,18.4,24,17.7,24,16.9C24,17,24,16.9,24,16.9L24,16.9z
		 M23.4,16.3c0,0.3,0,0.5-0.2,0.7c-0.2,0.2-0.4,0.1-0.4,0.1s0,0,0,0h-0.9L21.6,17c0,0-0.1,0-0.1,0l0,0l-0.2-0.2c0,0-0.1-0.1-0.1,0
		c0,0-0.1,0-0.1,0.1L21,17.1l-0.1-0.1c0,0-0.1-0.1-0.1,0S20.7,17,20.7,17l-0.1,0.7l-0.2-2.4c0-0.1-0.1-0.1-0.1-0.1
		c-0.1,0-0.1,0-0.1,0.1l-0.3,1.9l-0.1-0.3c0,0-0.1-0.1-0.1-0.1c0,0-0.1,0-0.1,0.1l-0.2,0.4l-0.1-0.1c0,0-0.1-0.1-0.1-0.1
		c0,0-0.1,0-0.1,0.1l-0.1,0.4l-0.2-1.3c0-0.1,0-0.1-0.1-0.1c-0.1,0-0.1,0-0.1,0.1l-0.6,1l-0.4-0.3c-0.1,0-0.1,0-0.2,0
		c-0.1,0.2-0.3,0.4-0.4,0.7c-0.1-0.3-0.1-0.6-0.1-0.8c0-1.9,1.5-3.4,3.3-3.5C21.7,13.6,23,14.7,23.4,16.3 M16.8,18.6
		c0,0.1,0.1,0.2,0.2,0.3c0.1,0.3,0.3,0.5,0.5,0.7C16.8,19,16.4,18,16.4,17c0-1,0.4-2,1.1-2.6c-0.6,0.7-1,1.6-1,2.6
		C16.5,17.6,16.6,18.1,16.8,18.6 M19.9,20.9c-2.1,0-3.8-1.7-3.8-3.9c0-2.1,1.7-3.9,3.8-3.9c0.4,0,0.7,0,1,0.1
		c-0.2,0-0.4-0.1-0.6-0.1c-0.1,0-0.1,0-0.2,0c-0.1,0-0.1,0-0.2,0c-2.1,0-3.8,1.7-3.8,3.8c0,2.1,1.7,3.8,3.8,3.8c0.1,0,0.1,0,0.2,0
		c0.1,0,0.1,0,0.2,0c0.4,0,0.8-0.1,1.1-0.2C20.9,20.8,20.4,20.9,19.9,20.9 M20.1,20.5c-1.3-0.1-2.5-0.9-3-2.1
		c-0.1-0.5,0.2-0.9,0.3-1.1l0.4,0.3c0,0,0.1,0,0.1,0c0,0,0.1,0,0.1-0.1l0.5-0.8l0.3,1.5c0,0.1,0.1,0.1,0.1,0.1c0.1,0,0.1,0,0.1-0.1
		l0.2-0.7l0,0.1c0,0,0.1,0.1,0.1,0.1c0,0,0.1,0,0.1-0.1l0.1-0.4l0.2,0.4c0,0,0.1,0.1,0.1,0.1c0.1,0,0.1,0,0.1-0.1l0.2-1.2l0.2,2.5
		c0,0.1,0.1,0.1,0.1,0.1c0,0,0,0,0,0c0.1,0,0.1,0,0.1-0.1l0.2-1.5l0.1,0.1c0,0,0.1,0,0.1,0c0,0,0.1,0,0.1-0.1l0.1-0.2l0.1,0.1
		c0,0,0.1,0.1,0.2,0l0.1-0.1l0.2,0.1c0,0,0,0,0,0h0.9c0,0,0.3,0,0.5-0.2c0,0,0.1-0.1,0.1-0.1C23.4,18.9,22,20.4,20.1,20.5
		 M23.2,18.9c-0.2,0.3-0.4,0.5-0.6,0.7c0.6-0.7,1-1.6,1-2.6c0-1-0.4-1.9-1-2.6c0.1,0.1,0.2,0.2,0.3,0.4c0.4,0.6,0.7,1.4,0.7,2.2
		C23.7,17.7,23.5,18.3,23.2,18.9"/>
	<rect x="23.8" y="13" clip-path="url(#SVGID_2_)" fill="#090B0F" width="0.3" height="0.8"/>
	<line clip-path="url(#SVGID_2_)" fill="#090B0F" x1="23.9" y1="12.8" x2="23.9" y2="13.3"/>
	<rect x="23.9" y="12.8" clip-path="url(#SVGID_2_)" fill="#090B0F" width="0.1" height="0.5"/>
	<path clip-path="url(#SVGID_2_)" fill="#090B0F" d="M24,12.8l-0.1-0.1c0,0,0,0-0.1,0l-0.1,0.1c0,0,0,0,0,0c0,0,0,0,0,0L24,12.8
		C24,12.8,24,12.8,24,12.8C24,12.8,24,12.8,24,12.8"/>
	<rect x="23.7" y="13.7" clip-path="url(#SVGID_2_)" fill="#090B0F" width="0.5" height="1.2"/>
	<rect x="23.9" y="13.7" clip-path="url(#SVGID_2_)" fill="#090B0F" width="0.2" height="1.2"/>
</g>
</svg>
