<?xml version="1.0" encoding="utf-8"?>
<!-- Generator: Adobe Illustrator 17.1.0, SVG Export Plug-In . SVG Version: 6.00 Build 0)  -->
<!DOCTYPE svg PUBLIC "-//W3C//DTD SVG 1.1//EN" "http://www.w3.org/Graphics/SVG/1.1/DTD/svg11.dtd">
<svg version="1.1" id="Слой_1" xmlns="http://www.w3.org/2000/svg" xmlns:xlink="http://www.w3.org/1999/xlink" x="0px" y="0px"
	 viewBox="0 0 20 20" enable-background="new 0 0 20 20" xml:space="preserve">
<g>
	<path fill="#FFFFFF" d="M10,5.3l1.4,2.8l0.2,0.5l0.5,0.1L15.2,9L13,11.2l-0.4,0.4l0.1,0.5l0.5,3.1l-2.8-1.4L10,13.5l-0.5,0.2
		l-2.8,1.4l0.5-3.1l0.1-0.5L7,11.2L4.8,9l3.1-0.4l0.5-0.1l0.2-0.5L10,5.3 M10,3L7.7,7.6L2.6,8.3l3.7,3.6L5.5,17l4.5-2.4l4.5,2.4
		l-0.9-5.1l3.7-3.6l-5.1-0.7L10,3L10,3z"/>
</g>
</svg>
