<svg xmlns="http://www.w3.org/2000/svg" viewBox="0 0 30 30" enable-background="new 0 0 30 30"><path d="M25 8H5c-1.1 0-2 .9-2 2v10c0 1.1.9 2 2 2h20c1.1 0 2-.9 2-2V10c0-1.1-.9-2-2-2zm-3.9 12H8.9c-.3-1.6-1.4-3.5-3.9-3.9v-2.2c1.6-.3 3.5-1.4 3.9-3.9h12.2c.4 2.5 2.4 3.6 3.9 3.9v2.2c-1.6.3-3.5 1.4-3.9 3.9zm3.9-8.2c-.7-.2-1.6-.7-1.9-1.8H25v1.8zM6.9 10c-.3 1.1-1.2 1.6-1.9 1.8V10h1.9zM5 18.1c1.2.3 1.6 1.2 1.9 1.9H5v-1.9zM23.1 20c.3-1.1 1.2-1.6 1.9-1.8V20h-1.9zM15 11c-2.2 0-4 1.8-4 4s1.8 4 4 4 4-1.8 4-4-1.8-4-4-4zm0 6c-1.1 0-2-.9-2-2s.9-2 2-2 2 .9 2 2-.9 2-2 2z"/></svg>