<svg xmlns="http://www.w3.org/2000/svg" viewBox="0 0 40 40" enable-background="new 0 0 40 40"><path d="M15 11c-2.1 0-3 1.8-3 2.9 0 .5.4 1 1 1s1-.4 1-.9c0-.4.2-1 1-1s1 .6 1 1c0 .5.5 1 1 1 .6 0 1-.5 1-1 0-1.3-.9-3-3-3zM35.5 12.8c-.4-.5-.9-.7-1.5-.8h-.3c-2.9 0-4.8 4.2-5.4 6H22v-6c0-2.1-1.5-6-7-6-5.3 0-7.4 3.6-7.9 5.7L4.7 9.3c-.4-.3-1-.3-1.4.1-.4.4-.4 1 0 1.4l3.2 3.1-3.1 2.4c-.4.3-.5 1-.2 1.4.2.2.5.3.8.3.2 0 .4-.1.6-.2L7 16v4.2c0 .1.6 3.5 2.5 6.8 2.6 4.6 6.6 7 11.5 7 9.4 0 12.8-6.9 13.7-10.9 1-2.6 1.3-7.8 1.3-7.9.1-.3.2-1.5-.5-2.4zM27 24c-1.8 0-3.1-.5-3.9-1.4-.7-.8-1-1.9-1-2.6h10.8c0 .1.1.3.1.9v.2c-.1.6-1 2.8-6 2.9zm6.8-10h.1c.1.1.1.6.1.9 0 .7-.2 1.9-.3 3.2-.3-.1-.6-.1-.7-.1h-2.6c.9-2 2.2-4.1 3.4-4zM21 32c-4.1 0-7.4-2-9.7-5.9C9.7 23.3 9.1 20.5 9 20v-7.8c.2-.7 1.2-4.2 6-4.2s5 3.6 5 4v8c.1 1 .4 2.6 1.5 3.9 1.2 1.4 3 2.1 5.4 2.1h.1c2.2 0 3.8-.4 4.9-1-1.3 3.2-4.3 7-10.9 7z"/></svg>