<svg xmlns="http://www.w3.org/2000/svg" viewBox="0 0 40 40" enable-background="new 0 0 40 40"><path d="M35.4 6.4C34.9 5.5 34 5 33 5h-2.6c-.4 0-.8.1-1.3.2-.4.1-.9.3-1.5.6-2.5 1.2-6.5 3.7-6.5 8.2H20c-.6 0-1 .4-1 1s.4 1 1 1h1v2h-2c-.6 0-1 .4-1 1s.4 1 1 1h2v3.4c0 .5-.2.8-.4 1-.3.2-.6.4-1 .4-.2 0-.6-.1-.9-.5-1.3-1.4-1.6-2.6-1.7-3.1.3-.5.5-1 .5-1.6 0-.8-.2-1.5-.8-2.1-.6-.7-1.4-1.1-2.3-1.1-.7 0-1.4.2-1.9.7l-6.9 6c-.6.5-1 1.3-1 2.1s.2 1.5.8 2.1c.6.7 1.4 1.1 2.3 1.1.3 0 .7-.1 1-.2 1.6 2 6 6.8 11.3 6.8 6.6 0 9-4.6 9-9V14c0-.3.1-3 3-3h.6c1.1 0 2.2-.6 2.8-1.6.6-1 .6-2.1 0-3zM7 26.1c-.4-.4-.3-1 0-1.4l6.9-6c.2-.1.4-.2.6-.2.3 0 .6.1.8.4.4.4.3 1 0 1.4l-6.9 6c-.2.1-.4.2-.6.2-.3 0-.6-.1-.8-.4zM27 14v12c0 2.1-.7 7-7 7-4.3 0-8.2-4.1-9.6-5.8l5-4.3c.3.8.9 1.8 1.8 2.9l.1.1c.6.7 1.5 1 2.4 1 .8 0 1.7-.3 2.3-.9.7-.6 1.1-1.5 1.1-2.4v-7.4c.5 0 1-.5 1-1s-.4-1-.9-1c0-2.8 2.2-4.7 4.2-5.8.2.6.5 1.2 1 1.8.1.1.2.2.3.2-1.3 1-1.7 2.6-1.7 3.6zm6.7-5.6c-.2.3-.5.6-1 .6H32c-.4 0-.7 0-1.1.1-1.3 0-1.7-1-1.9-1.7.3-.1.5-.2.7-.3.3 0 .6-.1.8-.1H33c.3 0 .5.1.7.4.2.4.1.8 0 1z"/></svg>