<svg xmlns="http://www.w3.org/2000/svg" viewBox="0 0 40 40" enable-background="new 0 0 40 40"><path d="M30.4 7c-.8-.5-1.7-.8-2.5-.8-1.2 0-2 .5-2.6.9-.5.4-.8 1-.8 1.6v2.8c-.3-.1-.6-.1-.9-.1-.8 0-1.6.3-2.1.6-.9-.6-2.1-.7-3-.4v-3c0-.5-.2-1-.5-1.3-1-1-2-1.6-3.2-1.6-1.5 0-2.7.9-3.1 1.8-.2.3-.2.6-.2.9l-.1 9.9c-1.8-1-3.1-1.1-3.7-1.1-.4 0-.8.2-1.1.4-.1.1-2.1 1.7-2 3.5.1.6.4 1.4 1.5 2 4.3 2.2 6.8 5.7 8.6 8.3 1.2 1.7 2 2.9 3.1 3.4 0 0 .1 0 .1.1.2.1.6.3 1 .3h7.6c3.1 0 4-2 4-3l.9-23.5c0-.6-.3-1.3-1-1.7zm-1.9 25.2s-.1 1.1-2 1.1H19s-.1 0-.1-.1c-.1 0-.2-.1-.3-.1-.6-.3-1.4-1.5-2.3-2.8-1.9-2.7-4.5-6.5-9.3-8.9-.2-.1-.4-.3-.4-.4 0-.5.7-1.4 1.2-1.8h.1c.4 0 1.2.1 2.5.8.3.2.7.3 1 .3 1.1 0 2-.9 2-2V8.4c.1-.2.6-.8 1.4-.8.5 0 1.1.3 1.6.8l.1 8.5c0 .6.5 1 1 1 .6 0 1-.5 1-1v-3.3c.4-.3 1.2-.6 2 0V17c0 .6.4 1 1 1s1-.4 1-1v-3.4c.4-.3 1.3-.6 2 0v3.5c0 .6.4 1 1 1s1-.4 1-1V8.6c.3-.2.8-.5 1.4-.5.5 0 1 .2 1.5.5l-.9 23.6z"/></svg>