<svg xmlns="http://www.w3.org/2000/svg" viewBox="0 0 40 40" enable-background="new 0 0 40 40"><path d="M24 0h-8c-2.2 0-4 1.8-4 4v14c0 2.2 1.8 4 4 4 .1.8.4 2 1.2 2.9.5.5 1.1.9 1.8 1V29c0 .6.4 1 1 1s1-.4 1-1v-3.1c.6-.2 1.1-.4 1.6-.9.9-.9 1.2-2.1 1.4-3 2.2 0 4-1.8 4-4V4c0-2.2-1.8-4-4-4zm-2.9 23.6c-.3.3-.6.4-1.1.4-.6 0-1-.2-1.4-.5-.4-.4-.6-1-.6-1.5h3.9c-.1.5-.4 1.2-.8 1.6zM24 20h-8c-1.1 0-2-.9-2-2v-1h4c.5 0 1-.4 1-1s-.4-1-1-1h-4v-1h4c.5 0 1-.4 1-1s-.4-1-1-1h-4v-1h4c.5 0 1-.4 1-1s-.4-1-1-1h-4V8h4c.5 0 1-.4 1-1s-.4-1-1-1h-4V4c0-1.1.9-2 2-2h8c1.1 0 2 .9 2 2v2h-4c-.5 0-1 .4-1 1s.4 1 1 1h4v1h-4c-.5 0-1 .4-1 1s.4 1 1 1h4v1h-4c-.5 0-1 .4-1 1s.4 1 1 1h4v1h-4c-.5 0-1 .4-1 1s.4 1 1 1h4v1c0 1.1-.9 2-2 2z"/></svg>