<svg xmlns="http://www.w3.org/2000/svg" xmlns:xlink="http://www.w3.org/1999/xlink" width="40" height="40" viewBox="0 0 40 40"><defs><path id="a" d="M0 0h40v40H0z"/></defs><clipPath id="b"><use xlink:href="#a" overflow="visible"/></clipPath><path clip-path="url(#b)" d="M20 7c4.5 0 7.8 1 9.6 2.8 1.4 1.5 1.4 3 1.4 3 0 .1-1.1 13.9-11 20.3h-.1c-.9-.6-9.5-6.2-10.8-20.2 0-.2 0-1.7 1.4-3C12.2 8 15.5 7 20 7m0-2C6.5 5 7.1 12.9 7.1 12.9 8.6 28.9 19 34.8 19 34.8l1 .4.9-.4C32 27.9 33 12.9 33 12.9S33.5 5 20 5"/><path clip-path="url(#b)" fill="#090B0F" d="M24 16.9v-2.4h-.2v1.2c-.1-.4-.3-.7-.6-1-.7-1.1-1.9-1.7-3.3-1.7-2.2 0-4.1 1.9-4.1 4.1 0 2.3 1.8 4.1 4.1 4.1 1.5 0 2.9-.9 3.6-2.1.3-.7.5-1.4.5-2.2 0 .1 0 0 0 0zm-.6-.6c0 .3 0 .5-.2.7-.2.2-.4.1-.4.1h-.9l-.3-.1h-.1l-.2-.2s-.1-.1-.1 0c0 0-.1 0-.1.1l-.1.2-.1-.1s-.1-.1-.1 0-.1 0-.1 0l-.1.7-.2-2.4c0-.1-.1-.1-.1-.1-.1 0-.1 0-.1.1l-.3 1.9-.1-.3-.1-.1s-.1 0-.1.1l-.2.4-.1-.1-.1-.1s-.1 0-.1.1l-.1.4-.2-1.3c0-.1 0-.1-.1-.1s-.1 0-.1.1l-.6 1-.4-.3h-.2c-.1.2-.3.4-.4.7-.1-.3-.1-.6-.1-.8 0-1.9 1.5-3.4 3.3-3.5 1.5.2 2.8 1.3 3.2 2.9m-6.6 2.3c0 .1.1.2.2.3.1.3.3.5.5.7-.7-.6-1.1-1.6-1.1-2.6s.4-2 1.1-2.6c-.6.7-1 1.6-1 2.6 0 .6.1 1.1.3 1.6m3.1 2.3c-2.1 0-3.8-1.7-3.8-3.9 0-2.1 1.7-3.9 3.8-3.9.4 0 .7 0 1 .1-.2 0-.4-.1-.6-.1h-.4c-2.1 0-3.8 1.7-3.8 3.8 0 2.1 1.7 3.8 3.8 3.8h.4c.4 0 .8-.1 1.1-.2-.5.3-1 .4-1.5.4m.2-.4c-1.3-.1-2.5-.9-3-2.1-.1-.5.2-.9.3-1.1l.4.3h.1s.1 0 .1-.1l.5-.8.3 1.5c0 .1.1.1.1.1.1 0 .1 0 .1-.1l.2-.7v.1l.1.1s.1 0 .1-.1l.1-.4.2.4.1.1c.1 0 .1 0 .1-.1l.2-1.2.2 2.5c0 .1.1.1.1.1.1 0 .1 0 .1-.1l.2-1.5.1.1h.1s.1 0 .1-.1l.1-.2.1.1s.1.1.2 0l.1-.1.2.1h.9s.3 0 .5-.2l.1-.1c.2 1.9-1.2 3.4-3.1 3.5m3.1-1.6c-.2.3-.4.5-.6.7.6-.7 1-1.6 1-2.6s-.4-1.9-1-2.6c.1.1.2.2.3.4.4.6.7 1.4.7 2.2.1.7-.1 1.3-.4 1.9"/><path clip-path="url(#b)" fill="#090B0F" d="M23.8 13h.3v.8h-.3zM23.9 12.8v.5"/><path clip-path="url(#b)" fill="#090B0F" d="M23.9 12.8h.1v.5h-.1zM24 12.8l-.1-.1h-.1l-.1.1h.3"/><path clip-path="url(#b)" fill="#090B0F" d="M23.7 13.7h.5v1.2h-.5zM23.9 13.7h.2v1.2h-.2z"/></svg>