<?xml version="1.0" encoding="utf-8"?>
<!-- Generator: Adobe Illustrator 17.1.0, SVG Export Plug-In . SVG Version: 6.00 Build 0)  -->
<!DOCTYPE svg PUBLIC "-//W3C//DTD SVG 1.1//EN" "http://www.w3.org/Graphics/SVG/1.1/DTD/svg11.dtd">
<svg version="1.1" id="Слой_1" xmlns="http://www.w3.org/2000/svg" xmlns:xlink="http://www.w3.org/1999/xlink" x="0px" y="0px"
	 viewBox="0 0 380 200" enable-background="new 0 0 380 200" xml:space="preserve">
<path fill="#2E3E49" d="M158.1,100.7l0-39h-4l0,19c-2.3-6-5.5-11.5-9.5-16.4c-11.9-16.9-31.3-28-53.2-28c-36,0-65.4,29.8-65.4,66.5
	s29.3,66.5,65.4,66.5c24.6,0,46.1-14,57.3-34.5c6-9.4,9.4-20.5,9.4-32.4C158.1,101.8,158.1,101.2,158.1,100.7L158.1,100.7z
	 M147.2,90.4c0.3,4.9-0.7,8.5-2.8,10.7c-2.5,2.5-5.8,2.4-5.8,2.4c0,0-0.1,0-0.1,0h-15l-4.2-1.2c-0.5-0.1-1-0.1-1.5,0.2l-0.8,0.4
	l-2.7-3.5c-0.4-0.6-1.1-0.8-1.8-0.8c-0.7,0.1-1.3,0.5-1.6,1.2l-1.7,3.9l-1.9-2.3c-0.5-0.6-1.3-0.9-2.1-0.6c-0.8,0.2-1.3,0.8-1.4,1.6
	l-1.9,11.5L99,74.7c-0.1-1-0.9-1.8-1.9-1.9c-1-0.1-1.9,0.7-2.1,1.7l-5,30.2l-2.3-4.8c-0.3-0.7-1.1-1.2-1.9-1.1
	c-0.8,0-1.5,0.5-1.8,1.3l-2.6,7l-0.8-1.3c-0.4-0.6-1.2-1-2-0.9c-0.8,0.1-1.4,0.7-1.6,1.4l-2.1,6.9l-3.6-20.6
	c-0.1-0.8-0.8-1.5-1.6-1.6c-0.8-0.1-1.7,0.2-2.1,1l-9.4,16.6l-6.7-4.4c-0.8-0.5-1.9-0.4-2.6,0.3c-2.3,2.5-5.2,6.7-6.7,11.5
	c-1.1-4.3-1.6-8.9-1.6-13.5c0-30.3,23.9-55.1,53.8-56.6C120.5,47,141.9,65.8,147.2,90.4z M42.2,127.3c0.6,1.9,1.5,3.8,2.9,5.6
	c2.4,4.1,5.2,7.8,8.5,11.2c-11.3-10.4-18.5-25.3-18.5-41.8c0-16.5,7.1-31.4,18.5-41.8c-10.4,10.9-16.8,25.6-16.8,41.8
	C36.8,111.2,38.7,119.7,42.2,127.3z M91.4,165.3c-33.8,0-61.4-28-61.4-62.5c0-34.5,27.5-62.5,61.4-62.5c5.7,0,11.2,0.8,16.4,2.3
	c-3.4-0.6-6.8-0.9-10.4-0.9c-1,0-1.9,0-2.8,0.1c-0.9,0-1.9-0.1-2.8-0.1c-33.5,0-60.7,27.2-60.7,60.7S58.3,163,91.8,163
	c1,0,1.9,0,2.8-0.1c0.9,0,1.9,0.1,2.8,0.1c6.2,0,12.3-0.9,17.9-2.7C108,163.5,99.9,165.3,91.4,165.3z M94.6,158.9
	c-21.6-1.1-40.1-14.4-48.7-33.1c-2.1-7.4,2.7-14.6,5-17.5l7,4.6c0.5,0.3,1,0.4,1.6,0.3c0.5-0.1,1-0.5,1.3-1l7.7-13.6l4.1,23.5
	c0.2,0.9,0.9,1.6,1.9,1.7c0.9,0.1,1.8-0.5,2-1.4l3.3-10.9l0.6,1c0.4,0.6,1.1,1,1.9,0.9c0.7-0.1,1.4-0.6,1.6-1.3l2.3-6.2l3,6.3
	c0.4,0.8,1.2,1.2,2.1,1.1c0.9-0.1,1.6-0.8,1.7-1.7L96.2,92l2.8,39.5c0.1,1,0.9,1.8,1.9,1.9c0,0,0.1,0,0.1,0c1,0,1.8-0.7,2-1.7
	l3.9-24.2l1.2,1.4c0.4,0.5,1.1,0.8,1.8,0.7c0.7-0.1,1.3-0.5,1.6-1.2l1.6-3.8l1.7,2.2c0.6,0.8,1.7,1,2.5,0.5l1.5-0.8l3.7,1
	c0.2,0,0.3,0.1,0.5,0.1h15.2c0.7,0,5.2,0,8.8-3.5c0.5-0.5,0.9-1,1.3-1.6C148.4,132.7,124.5,157.4,94.6,158.9z M145.3,132.7
	c-2.6,4.2-5.8,7.9-9.4,11.3c10.3-10.9,16.6-25.5,16.6-41.6c0-16.1-6.3-30.7-16.5-41.6c2,1.8,3.8,3.8,5.5,5.9
	c7.1,10.2,11.3,22.7,11.3,36.1C152.8,113.6,150,123.8,145.3,132.7z"/>
<rect x="154" y="38.8" fill="#E9E9E1" width="4" height="12.6"/>
<g>
	<line fill="#E9E9E1" x1="156" y1="34.8" x2="156" y2="42.8"/>
	<rect x="155" y="34.8" fill="#E9E9E1" width="2" height="8"/>
</g>
<path fill="#E9E9E1" d="M157.5,34.4l-1-2.2c-0.2-0.4-0.7-0.4-0.9,0l-1,2.2c-0.1,0.2-0.1,0.3,0,0.5c0.1,0.1,0.3,0.2,0.4,0.2h2
	c0.2,0,0.3-0.1,0.4-0.2C157.5,34.7,157.5,34.5,157.5,34.4z"/>
<rect x="152" y="50" fill="#C24E45" width="8" height="19.6"/>
<rect x="156.2" y="50" fill="#D35251" width="3.8" height="19.6"/>
<g>
	<path fill="#FFFFFF" d="M213.3,65c0.5-1,0.6-1,3.6-1v25.2c0,0.7,0,0.8-3.7,0.8v-9.7c0-0.9,0.6-7.7,0.7-10.3c-1,2.3-4.2,9.2-4.5,9.7
		l-4.7,9.3c-0.5,1-0.6,1-3.6,1V64.8c0-0.8,0.4-0.8,3.8-0.8v11.8c0,2.2-0.5,6-0.6,7.9c0.9-2.2,4.1-8.8,4.4-9.5L213.3,65z"/>
	<path fill="#FFFFFF" d="M234,68.2c-0.8-0.5-2.2-0.9-3.7-0.9c-2.4,0-5.1,1.1-5.1,10.3c0,7.3,1.5,9.2,4.6,9.2c1.7,0,3.3-0.6,4.1-1.2
		c0.3,0.9,0.4,1.6,0.4,2.3c0,1.4-2.4,2.7-5.8,2.7c-5,0-7.8-2-7.8-12.9c0-12.5,5.1-14.1,9.4-14.1c2.4,0,4.3,1,4.3,2.3
		C234.4,66.4,234.3,67.3,234,68.2z"/>
	<path fill="#FFFFFF" d="M246.2,67.7v21.5c0,0.8,0.1,0.8-4.2,0.8V67.7h-5.7c0-3.3,0-3.7,0.9-3.7h14.6c0,3.3-0.1,3.7-0.9,3.7H246.2z"
		/>
	<path fill="#FFFFFF" d="M261.6,63.5c5.5,0,8.1,2.8,8.1,13.4c0,9.7-3,13.7-8.6,13.7c-5.3,0-8.2-1.8-8.2-13.5
		C252.9,67.5,256.2,63.5,261.6,63.5z M261.2,86.9c2.2,0,3.8-1.9,3.8-10c0-8.3-1.1-9.7-3.6-9.7c-2.3,0-3.9,1.8-3.9,9.9
		C257.5,85.7,258.9,86.9,261.2,86.9z"/>
	<path fill="#FFFFFF" d="M287.8,89.2c0,0.8,0,0.8-4.4,0.8v-9.8c-1.8,0.7-3.3,1-4.7,1c-4.3,0-6.3-3.2-6.3-7.5v-8.7
		c0-0.9-0.2-0.9,4.2-0.9v9c0,3.1,1,4.5,3,4.5c1.2,0,2.5-0.3,3.8-0.9V64.9c0-0.9,0.1-0.9,4.4-0.9V89.2z"/>
	<path fill="#FFFFFF" d="M308.1,89.2c0,0.8,0.1,0.8-4.4,0.8V78.8h-7v10.3c0,0.8,0.1,0.8-4.2,0.8V64.9c0-0.9-0.2-0.9,4.2-0.9v11.2h7
		V64.9c0-0.9,0.1-0.9,4.4-0.9V89.2z"/>
	<path fill="#FFFFFF" d="M325,65c0.5-1,0.6-1,3.6-1v25.2c0,0.7,0,0.8-3.7,0.8v-9.7c0-0.9,0.6-7.7,0.7-10.3c-1,2.3-4.2,9.2-4.5,9.7
		l-4.7,9.3c-0.5,1-0.6,1-3.6,1V64.8c0-0.8,0.4-0.8,3.8-0.8v11.8c0,2.2-0.5,6-0.6,7.9c0.9-2.2,4.1-8.8,4.4-9.5L325,65z"/>
	<path fill="#FFFFFF" d="M333.3,64.8c0-0.8-0.1-0.8,4.2-0.8v11l6.8-10.9c0.6-0.2,2.1-0.2,2.7-0.2c1.4,0,1.8,0.4,1.2,1.5l-6.8,9.8
		c5,3.6,6.9,10.8,7,13.5c0,0.9-0.5,1.2-1.5,1.2c-0.9,0-2,0-2.8,0c-0.4-3-2.7-10.3-6.6-11.9v10.1c0,0.5,0,1-0.1,1.4
		c-0.3,0.4-1.2,0.4-4.1,0.4V64.8z"/>
	<path fill="#FFFFFF" d="M203.4,121.8c3,0,6.5-1.2,6.5-5.3c0-1.9-1.3-2.9-3.9-2.9c-2.2,0-3.6,0.8-5.1,1.8c-0.5-0.8-1-1.8-1-2.4
		c0-1.1,1.9-3.1,6.7-3.1c4.9,0,7.5,2.1,7.5,6.3c0,4.9-4.2,6.5-5.5,6.5c2.8,0.1,6.3,1.5,6.3,5.9c0,5.7-3.7,8.4-8.7,8.4
		c-3.8,0-6.2-1.4-6.2-2.8c0-0.6,0.2-1.5,0.7-2.7c1.8,1.1,3.5,1.7,5.1,1.7c2.5,0,4.8-1.4,4.8-4.7c0-3.2-3.2-3.6-7.2-3.6V121.8z"/>
	<path fill="#FFFFFF" d="M218.5,111.3c0-0.6,0.3-0.9,1.4-0.9h4.8c4,0,8.2,0.9,8.2,6c0,4.5-3.2,6.1-4.4,6.2c0.6,0.1,1.2,0.2,1.7,0.3
		c0.8,0.2,3.8,1,3.8,5.1c0,4.6-2.9,8.3-9.2,8.3h-6.2V111.3z M222.6,121.5c0.7,0.1,1.5,0.1,2.2,0.1c1.9,0,3.7-1.1,3.7-4.4
		c0-3.3-1.9-3.5-3.9-3.5c-0.9,0-2,0.1-2,0.1V121.5z M222.6,133c0.7,0,1.6,0,2.2,0c2.8,0,4.4-1.7,4.4-5.1c0-2.5-1-3.5-4.1-3.5
		c-1.1,0-1.9,0.1-2.5,0.1V133z"/>
	<path fill="#FFFFFF" d="M235.9,111.5c-0.3-1.1-0.3-1.1,4.1-1.1l2.8,12.4c0.8,4.2,1.4,9.3,1.4,9.3s0.5-5,1.2-9.3l2.3-11.1
		c0.2-1.2,0.3-1.2,4.6-1.2l-6.4,27.4c-1.6,6.6-3.5,8.6-7.3,8.6c-3.1,0-4.2-0.8-4.2-2c0-0.8,0.2-1.8,0.6-2.4c0.7,0.5,2.1,0.8,3.3,0.8
		c1.6,0,3-1.3,3.8-5.6L235.9,111.5z"/>
	<path fill="#FFFFFF" d="M255.6,111.2c0-0.8-0.1-0.8,4.2-0.8v11l6.8-10.9c0.6-0.2,2.1-0.2,2.7-0.2c1.4,0,1.8,0.4,1.2,1.5l-6.8,9.8
		c5,3.6,6.9,10.8,7,13.5c0,0.9-0.5,1.2-1.5,1.2c-0.9,0-2,0-2.8,0c-0.4-3-2.7-10.3-6.6-11.9v10.1c0,0.5,0,1-0.1,1.4
		c-0.3,0.4-1.2,0.4-4.1,0.4V111.2z"/>
	<path fill="#FFFFFF" d="M288.5,119c0,6-0.1,12.2-0.3,16.2c-1.4,0.8-3.8,1.8-7.2,1.8c-3.8,0.1-7.4-0.8-7.4-7.9
		c0-7.2,3.4-8.5,6.9-8.5c1.1,0,2.8,0.2,3.8,0.7c0,0,0-2.7,0-4.1c0-2.4-1.1-3.1-3.2-3.1c-2.6,0-5.4,0.5-6.9,1.1
		c-0.5-0.8-0.6-1.8-0.6-2.4c0-0.6,0.2-1.1,0.6-1.5c0.9-0.6,4-1.4,7.9-1.4c4.5,0,6.4,1.7,6.4,6.3V119z M281.7,123.7
		c-2.1,0-3.8,0.7-3.8,5.3c0,3.8,1.4,4.5,3.4,4.5c1.1,0,2.3-0.4,2.8-0.9c0.2-1.7,0.2-5.6,0.2-8.4
		C283.5,123.8,282.5,123.7,281.7,123.7z"/>
</g>
</svg>
