<?xml version="1.0" encoding="utf-8"?>
<!-- Generator: Adobe Illustrator 17.1.0, SVG Export Plug-In . SVG Version: 6.00 Build 0)  -->
<!DOCTYPE svg PUBLIC "-//W3C//DTD SVG 1.1//EN" "http://www.w3.org/Graphics/SVG/1.1/DTD/svg11.dtd">
<svg version="1.1" id="Слой_1" xmlns="http://www.w3.org/2000/svg" xmlns:xlink="http://www.w3.org/1999/xlink" x="0px" y="0px"
	 viewBox="0 0 200 200" enable-background="new 0 0 200 200" xml:space="preserve">
<path fill="#FFFFFF" d="M158.1,84.4l0-39h-4l0,19c-2.3-6-5.5-11.5-9.5-16.4c-11.9-16.9-31.3-28-53.2-28c-36,0-65.4,29.8-65.4,66.5
	s29.3,66.5,65.4,66.5c24.6,0,46.1-14,57.3-34.5c6-9.4,9.4-20.5,9.4-32.4C158.1,85.5,158.1,84.9,158.1,84.4L158.1,84.4z M147.2,74.1
	c0.3,4.9-0.7,8.5-2.8,10.7c-2.5,2.5-5.8,2.4-5.8,2.4c0,0-0.1,0-0.1,0h-15l-4.2-1.2c-0.5-0.1-1-0.1-1.5,0.2l-0.8,0.4l-2.7-3.5
	c-0.4-0.6-1.1-0.8-1.8-0.8c-0.7,0.1-1.3,0.5-1.6,1.2l-1.7,3.9l-1.9-2.3c-0.5-0.6-1.3-0.9-2.1-0.6c-0.8,0.2-1.3,0.8-1.4,1.6
	l-1.9,11.5L99,58.4c-0.1-1-0.9-1.8-1.9-1.9c-1-0.1-1.9,0.7-2.1,1.7l-5,30.2l-2.3-4.8c-0.3-0.7-1.1-1.2-1.9-1.1
	c-0.8,0-1.5,0.5-1.8,1.3l-2.6,7l-0.8-1.3c-0.4-0.6-1.2-1-2-0.9c-0.8,0.1-1.4,0.7-1.6,1.4l-2.1,6.9l-3.6-20.6
	c-0.1-0.8-0.8-1.5-1.6-1.6c-0.8-0.1-1.7,0.2-2.1,1l-9.4,16.6l-6.7-4.4c-0.8-0.5-1.9-0.4-2.6,0.3c-2.3,2.5-5.2,6.7-6.7,11.5
	c-1.1-4.3-1.6-8.9-1.6-13.5c0-30.3,23.9-55.1,53.8-56.6C120.5,30.7,141.9,49.5,147.2,74.1z M42.2,111c0.6,1.9,1.5,3.8,2.9,5.6
	c2.4,4.1,5.2,7.8,8.5,11.2C42.2,117.5,35.1,102.5,35.1,86c0-16.5,7.1-31.4,18.5-41.8C43.2,55.1,36.8,69.8,36.8,86
	C36.8,94.9,38.7,103.4,42.2,111z M91.4,148.9c-33.8,0-61.4-28-61.4-62.5c0-34.5,27.5-62.5,61.4-62.5c5.7,0,11.2,0.8,16.4,2.3
	c-3.4-0.6-6.8-0.9-10.4-0.9c-1,0-1.9,0-2.8,0.1c-0.9,0-1.9-0.1-2.8-0.1c-33.5,0-60.7,27.2-60.7,60.7s27.2,60.7,60.7,60.7
	c1,0,1.9,0,2.8-0.1c0.9,0,1.9,0.1,2.8,0.1c6.2,0,12.3-0.9,17.9-2.7C108,147.2,99.9,148.9,91.4,148.9z M94.6,142.6
	c-21.6-1.1-40.1-14.4-48.7-33.1c-2.1-7.4,2.7-14.6,5-17.5l7,4.6c0.5,0.3,1,0.4,1.6,0.3c0.5-0.1,1-0.5,1.3-1l7.7-13.6l4.1,23.5
	c0.2,0.9,0.9,1.6,1.9,1.7c0.9,0.1,1.8-0.5,2-1.4l3.3-10.9l0.6,1c0.4,0.6,1.1,1,1.9,0.9c0.7-0.1,1.4-0.6,1.6-1.3l2.3-6.2l3,6.3
	c0.4,0.8,1.2,1.2,2.1,1.1c0.9-0.1,1.6-0.8,1.7-1.7l3.2-19.7l2.8,39.5c0.1,1,0.9,1.8,1.9,1.9c0,0,0.1,0,0.1,0c1,0,1.8-0.7,2-1.7
	l3.9-24.2l1.2,1.4c0.4,0.5,1.1,0.8,1.8,0.7c0.7-0.1,1.3-0.5,1.6-1.2l1.6-3.8l1.7,2.2c0.6,0.8,1.7,1,2.5,0.5l1.5-0.8l3.7,1
	c0.2,0,0.3,0.1,0.5,0.1h15.2c0.7,0,5.2,0,8.8-3.5c0.5-0.5,0.9-1,1.3-1.6C148.4,116.4,124.5,141.1,94.6,142.6z M145.3,116.4
	c-2.6,4.2-5.8,7.9-9.4,11.3c10.3-10.9,16.6-25.5,16.6-41.6c0-16.1-6.3-30.7-16.5-41.6c2,1.8,3.8,3.8,5.5,5.9
	c7.1,10.2,11.3,22.7,11.3,36.1C152.8,97.3,150,107.5,145.3,116.4z"/>
<rect x="154" y="22.5" fill="#E9E9E1" width="4" height="12.6"/>
<g>
	<line fill="#E9E9E1" x1="156" y1="18.5" x2="156" y2="26.5"/>
	<rect x="155" y="18.5" fill="#E9E9E1" width="2" height="8"/>
</g>
<path fill="#E9E9E1" d="M157.5,18.1l-1-2.2c-0.2-0.4-0.7-0.4-0.9,0l-1,2.2c-0.1,0.2-0.1,0.3,0,0.5c0.1,0.1,0.3,0.2,0.4,0.2h2
	c0.2,0,0.3-0.1,0.4-0.2C157.5,18.4,157.5,18.2,157.5,18.1z"/>
<rect x="152" y="33.7" fill="#2E3E49" width="8" height="19.6"/>
<rect x="156.2" y="33.7" fill="#465F70" width="3.8" height="19.6"/>
</svg>
